<?xml version="1.0" encoding="UTF-8"?>
<svg width="123px" height="25px" viewBox="0 0 123 25" version="1.1" xmlns="http://www.w3.org/2000/svg" xmlns:xlink="http://www.w3.org/1999/xlink">
    <!-- Generator: Sketch 62 (91390) - https://sketch.com -->
    <title>logo-emotive-white</title>
    <desc>Created with Sketch.</desc>
    <g id="Logo-v2" stroke="none" stroke-width="1" fill="none" fill-rule="evenodd">
        <g id="Logo-v2-Typeface" transform="translate(-539.000000, -188.000000)" fill="#FFFFFF" fill-rule="nonzero">
            <g id="Group-3">
                <g id="Group-2" transform="translate(400.000000, 0.000000)">
                    <path d="M148.08,212.74 C152.68,212.74 155.56,209.98 156.2,206.94 L152.68,206.94 C152.08,208.5 150.8,209.82 148.08,209.82 C144.12,209.82 142.56,207.18 142.44,204.14 L156.2,204.14 C156.36,203.14 156.36,202.38 156.36,201.86 C156.36,197.22 152.68,193.66 147.96,193.66 C142.24,193.66 139,197.74 139,203.22 C139,208.46 141.96,212.74 148.08,212.74 Z M153,201.5 L142.48,201.5 C142.6,198.18 144.72,196.34 147.88,196.34 C150.8,196.34 153,198.3 153,201.5 Z M161.88,212.3 L161.88,203.06 C161.88,198.78 163.68,196.74 166.36,196.74 C168.8,196.74 170.16,198.38 170.16,202.06 L170.16,212.3 L173.64,212.3 L173.64,203.06 C173.64,198.78 175.36,196.74 178.08,196.74 C180.6,196.74 181.92,198.5 181.92,201.86 L181.92,212.3 L185.4,212.3 L185.4,200.82 C185.4,196.82 183.72,193.66 178.92,193.66 C176.04,193.66 173.84,195.46 173.08,197.54 C172.4,195.18 170.6,193.66 167.24,193.66 C164.52,193.66 162.56,195.34 161.88,197.38 L161.88,194.14 L158.4,194.14 L158.4,212.3 L161.88,212.3 Z M197.4,212.74 C203.24,212.74 207,208.34 207,203.22 C207,198.06 203.24,193.66 197.4,193.66 C191.64,193.66 187.88,198.06 187.88,203.22 C187.88,208.34 191.64,212.74 197.4,212.74 Z M197.4,209.62 C193.72,209.62 191.32,206.7 191.32,203.22 C191.32,199.74 193.72,196.78 197.4,196.78 C201.12,196.78 203.56,199.74 203.56,203.22 C203.56,206.7 201.12,209.62 197.4,209.62 Z M216.14,212.54 C217.3,212.54 218.58,212.42 219.26,212.3 L219.26,209.22 C218.74,209.34 217.66,209.38 216.9,209.38 C215.14,209.38 213.9,208.94 213.9,205.42 L213.9,197.06 L218.62,197.06 L218.62,194.14 L213.9,194.14 L213.9,188.02 L210.42,188.02 L210.42,194.14 L207.06,194.14 L207.06,197.06 L210.42,197.06 L210.42,206.18 C210.42,212.14 213.9,212.54 216.14,212.54 Z M223.091429,192 C224.205714,192 225.12,191.142857 225.12,190.028571 C225.12,188.914286 224.205714,188 223.091429,188 C221.977143,188 221.12,188.914286 221.12,190.028571 C221.12,191.142857 221.977143,192 223.091429,192 Z M224.84,212.3 L224.84,194.14 L221.36,194.14 L221.36,212.3 L224.84,212.3 Z M236.76,212.3 L245.08,194.14 L241.32,194.14 L235.56,207.34 L229.88,194.14 L226.12,194.14 L234.36,212.3 L236.76,212.3 Z M253.04,212.74 C257.64,212.74 260.52,209.98 261.16,206.94 L257.64,206.94 C257.04,208.5 255.76,209.82 253.04,209.82 C249.08,209.82 247.52,207.18 247.4,204.14 L261.16,204.14 C261.32,203.14 261.32,202.38 261.32,201.86 C261.32,197.22 257.64,193.66 252.92,193.66 C247.2,193.66 243.96,197.74 243.96,203.22 C243.96,208.46 246.92,212.74 253.04,212.74 Z M257.96,201.5 L247.44,201.5 C247.56,198.18 249.68,196.34 252.84,196.34 C255.76,196.34 257.96,198.3 257.96,201.5 Z" id="logo-emotive-white"></path>
                </g>
            </g>
        </g>
    </g>
</svg>